<svg width="51" height="52" viewBox="0 0 51 52" fill="none" xmlns="http://www.w3.org/2000/svg">
<path d="M0.755115 27.7962C1.26977 24.5323 2.65935 21.4655 4.98818 19.0101C5.19404 18.7932 5.33557 18.4974 5.81163 18.4481C5.03964 22.6488 7.3556 26.1199 9.91602 29.6402C10.3535 29.0683 10.1734 28.5161 10.3149 28.0033C11.0869 24.9859 13.0297 22.3727 15.0111 19.7596C17.147 16.9492 19.553 14.2473 20.8268 11.1017C22.2035 7.69964 22.2549 4.3765 19.6045 1.2703C19.4887 1.14211 19.2828 0.984337 19.4501 0.846283C19.7331 0.639204 20.0419 0.836422 20.3121 0.925171C24.9955 2.37473 29.3444 4.24831 33.0885 6.89104C37.5403 10.0367 40.4224 13.8233 41.2587 18.4678C41.5675 20.1639 41.4645 21.8599 41.1429 23.6941C43.4974 21.5641 44.4624 19.1975 44.501 16.397C46.4953 18.3297 47.9492 20.2526 49.0557 22.3431C53.6105 30.9419 49.9178 41.4043 40.5382 47.2321C31.4159 52.8923 17.3657 52.4979 8.64225 46.4728C1.92596 41.8185 -0.287067 34.4819 0.755115 27.7962Z" fill="#FF6161"/>
<path d="M49.0558 22.3236C47.9493 20.243 46.4954 18.3102 44.5011 16.3775C44.4625 19.1681 43.4975 21.5446 41.143 23.6746C41.4646 21.8404 41.5676 20.1443 41.2588 18.4483C40.4353 13.8038 37.5404 10.0172 33.0886 6.87152C30.3352 4.92892 27.2472 3.40047 23.9406 2.14813V51.1964C29.8462 51.4331 35.842 50.1216 40.5254 47.2126C49.9179 41.3947 53.6106 30.9223 49.0558 22.3236Z" fill="#E54141"/>
<path d="M23.8635 51.1961C19.862 51.1961 15.8734 50.2396 12.7469 48.2773C10.0706 46.6009 8.20501 44.323 7.22716 41.7888C6.35224 39.5503 6.10778 37.0555 6.49377 34.5706C6.6739 33.3873 7.02129 32.2631 7.51022 31.2277C7.87048 30.4783 8.30794 29.7683 8.80973 29.1273C8.84833 30.0937 9.09279 31.0699 9.54312 32.0955C10.1607 33.5056 11.1 34.8467 12.0135 36.099C12.1807 36.3357 12.3351 36.5921 12.5667 36.7696C13.403 36.2469 13.3259 35.4581 13.5188 34.7382C14.7026 30.143 19.4245 26.7903 21.2258 22.3726C22.2938 19.7397 22.1651 17.4816 20.8141 15.4798C26.8228 17.452 32.484 20.9625 34.414 25.9225C35.3532 28.3089 34.9929 30.6854 34.5684 33.1013L36.0094 31.7996C37.399 30.5473 38.2096 29.1569 38.5055 27.5101C38.8014 27.8356 39.0716 28.1807 39.3289 28.516C42.5584 32.7364 42.8929 38.3177 40.5513 42.8439C38.3511 47.094 33.0244 50.1509 27.2087 50.9496C26.1151 51.1172 24.9957 51.1961 23.8635 51.1961Z" fill="#FEBD55"/>
<path d="M39.342 28.5257C39.0847 28.1904 38.8016 27.8551 38.5185 27.5198C38.2226 29.1666 37.412 30.557 36.0225 31.8093L34.5814 33.111C35.006 30.6852 35.3663 28.3186 34.427 25.9322C32.8573 21.9287 28.8558 18.8619 24.2111 16.7911V51.1861C25.2275 51.1762 26.2311 51.0973 27.2218 50.9593C33.0374 50.1606 38.3641 47.1037 40.5643 42.8536C42.8931 38.3373 42.5715 32.756 39.342 28.5257Z" fill="#FF9522"/>
<path d="M20.1709 40.5564C22.2552 40.5564 23.9536 39.2548 23.9536 37.6573C23.9536 36.0599 22.2552 34.7582 20.1709 34.7582C18.0865 34.7582 16.3881 36.0599 16.3881 37.6573C16.3881 39.2548 18.0865 40.5564 20.1709 40.5564ZM20.1709 36.2472C21.1873 36.2472 22.0236 36.8783 22.0236 37.6672C22.0236 38.4462 21.2002 39.0872 20.1709 39.0872C19.1544 39.0872 18.3181 38.4561 18.3181 37.6672C18.331 36.8783 19.1544 36.2472 20.1709 36.2472Z" fill="#393F59"/>
<path d="M31.0166 35.5075C31.0166 35.2906 30.9008 35.0835 30.6692 34.9356C30.2575 34.6792 29.6528 34.7186 29.3054 35.0342L17.6098 45.9207C17.4683 46.0587 17.3911 46.2263 17.3911 46.394C17.3911 46.6109 17.5068 46.818 17.7384 46.9659C17.9186 47.0744 18.1373 47.1335 18.356 47.1335C18.6391 47.1335 18.9093 47.0448 19.1023 46.8673L30.7979 35.9808C30.9523 35.8329 31.0166 35.6653 31.0166 35.5075Z" fill="#393F59"/>
<path d="M28.225 41.3357C26.1406 41.3357 24.4423 42.6373 24.4423 44.2348C24.4423 45.8323 26.1406 47.1339 28.225 47.1339C30.3094 47.1339 32.0077 45.8323 32.0077 44.2348C32.0077 42.6373 30.3094 41.3357 28.225 41.3357ZM28.225 45.6449C27.2085 45.6449 26.3722 45.0138 26.3722 44.2249C26.3722 43.436 27.1957 42.8049 28.225 42.8049C29.2543 42.8049 30.0778 43.436 30.0778 44.2249C30.0778 45.0138 29.2414 45.6449 28.225 45.6449Z" fill="#393F59"/>
<path d="M31.017 35.5075C31.017 35.2906 30.9012 35.0835 30.6696 34.9356C30.2579 34.6792 29.6532 34.7186 29.3058 35.0342L24.1978 39.7871V42.1143L30.7983 35.971C30.9527 35.8329 31.017 35.6653 31.017 35.5075Z" fill="#23293F"/>
<path d="M28.225 41.3358C26.1406 41.3358 24.4423 42.6374 24.4423 44.2349C24.4423 45.8323 26.1406 47.134 28.225 47.134C30.3094 47.134 32.0077 45.8323 32.0077 44.2349C31.9949 42.6374 30.3094 41.3358 28.225 41.3358ZM28.225 45.645C27.2085 45.645 26.3722 45.0139 26.3722 44.225C26.3722 43.446 27.1957 42.805 28.225 42.805C29.2414 42.805 30.0778 43.4361 30.0778 44.225C30.0649 45.0139 29.2414 45.645 28.225 45.645Z" fill="#23293F"/>
</svg>
